<?xml version="1.0" encoding="UTF-8"?>
<svg id="Layer_2" data-name="Layer 2" xmlns="http://www.w3.org/2000/svg" viewBox="0 0 36 36">
  <g id="Layer_2-2" data-name="Layer 2">
    <g>
      <g>
        <path d="M23.4,22.4c2.5-1.4,4.3-3.4,4.5-3.7s0,0,0,0c-.3-.5-3-4.2-6.6-5.8,0,0-.4-.2-1.1-.4-.9-.3-2.7-.6-3.6-.2" fill="none" stroke="#000" stroke-miterlimit="10" stroke-width="2"/>
        <path d="M14.7,12.7c-.2.1-.5.2-.7.4-3.3,1.7-5.7,5-6,5.5s0,0,0,.1c.5.6,4.8,5.3,10,5.3s1,0,1.5-.1c0,0,1.2-.1,2-.6" fill="none" stroke="#000" stroke-miterlimit="10" stroke-width="2"/>
        <path d="M20.4,21.2c-.7.5-1.5.8-2.4.8-2.2,0-4-1.8-4-4s.7-2.7,1.9-3.4"/>
        <path d="M21.7,19.5c.2-.5.3-1,.3-1.5,0-2.2-1.8-4-4-4"/>
        <line x1="11.9" y1="10" x2="22.9" y2="26.2" fill="none" stroke="#000" stroke-linecap="round" stroke-miterlimit="10" stroke-width="2"/>
      </g>
      <rect width="36" height="36" fill="none"/>
    </g>
  </g>
</svg>