<?xml version="1.0" encoding="UTF-8"?>
<svg id="Layer_2" data-name="Layer 2" xmlns="http://www.w3.org/2000/svg" viewBox="0 0 36 36">
  <g id="Layer_2-2" data-name="Layer 2">
    <g>
      <path d="M14.4,16.6v-1.2c.8,0,1.4-.2,1.9-.4.5-.2,1.1-.4,1.8-.8h1v11.1c0,.4,0,.7.2.9s.3.3.5.4c.2,0,.6.1,1.1.1h.7v1.2h-7.1v-1.2h.6c.6,0,1,0,1.2-.2.2-.1.4-.3.5-.5,0-.2.1-.7.1-1.4v-8.2h-2.4ZM18,8c.4,0,.8.2,1.1.5.3.3.5.7.5,1.1s-.2.8-.5,1.1c-.3.3-.7.5-1.1.5s-.8-.2-1.1-.5c-.3-.3-.5-.7-.5-1.1s.2-.8.5-1.1c.3-.3.7-.5,1.1-.5Z" fill="#231f20" stroke="#000" stroke-miterlimit="10"/>
      <rect width="36" height="36" fill="none"/>
    </g>
  </g>
</svg>