<?xml version="1.0" encoding="UTF-8"?>
<svg id="Layer_2" data-name="Layer 2" xmlns="http://www.w3.org/2000/svg" viewBox="0 0 36 36">
  <g id="Layer_2-2" data-name="Layer 2">
    <g>
      <path d="M10.5,13.1c0-.9.3-1.9.9-2.8.6-.9,1.5-1.7,2.6-2.3,1.1-.6,2.5-.9,4-.9s2.6.3,3.7.8c1.1.5,1.9,1.2,2.5,2.1.6.9.9,1.9.9,2.9s-.2,1.5-.5,2.2c-.3.6-.7,1.2-1.2,1.6-.5.5-1.3,1.2-2.5,2.3-.3.3-.6.6-.8.8-.2.2-.3.4-.4.6,0,.2-.2.4-.2.6,0,.2-.1.5-.2,1-.2,1-.8,1.5-1.7,1.5s-.9-.2-1.3-.5c-.3-.3-.5-.8-.5-1.5s.1-1.5.4-2.1c.3-.6.6-1.1,1-1.6.4-.5,1-1,1.7-1.6.6-.5,1.1-1,1.3-1.2s.5-.6.7-.9c.2-.3.3-.7.3-1.1,0-.8-.3-1.4-.9-2-.6-.5-1.3-.8-2.2-.8s-1.9.3-2.4.8c-.5.5-.9,1.3-1.3,2.4-.3,1.1-1,1.6-1.9,1.6s-1-.2-1.4-.6c-.4-.4-.6-.8-.6-1.2ZM17.6,29c-.6,0-1.1-.2-1.5-.6-.4-.4-.7-.9-.7-1.6s.2-1.1.6-1.5c.4-.4.9-.6,1.6-.6s1.1.2,1.5.6c.4.4.6.9.6,1.5s-.2,1.2-.7,1.6-.9.6-1.5.6Z" fill="#231f20"/>
      <rect width="36" height="36" fill="none"/>
    </g>
  </g>
</svg>