<?xml version="1.0" encoding="UTF-8"?>
<svg id="Layer_2" data-name="Layer 2" xmlns="http://www.w3.org/2000/svg" viewBox="0 0 36 36">
  <g id="Layer_2-2" data-name="Layer 2">
    <g>
      <rect width="36" height="36" fill="none"/>
      <g>
        <path d="M7.9,17.4l9.9-8.2s.1,0,.1,0l9.9,8.2" fill="none" stroke="#000" stroke-linecap="round" stroke-miterlimit="10" stroke-width="3"/>
        <path d="M24.7,27.5h-5.3c-.1,0-.2,0-.2-.2v-4.5s-1.3,0-1.3,0h-1.3s0,4.5,0,4.5c0,.1,0,.2-.2.2h-5.3c-.8,0-1.4-.6-1.4-1.4v-6.1c0,0,0-.1,0-.2l7.9-6.4c0,0,.2,0,.3,0l8,6.4s0,0,0,.2v6.1c0,.8-.6,1.4-1.4,1.4Z"/>
      </g>
    </g>
  </g>
</svg>