<?xml version="1.0" encoding="UTF-8"?>
<svg id="Layer_2" data-name="Layer 2" xmlns="http://www.w3.org/2000/svg" viewBox="0 0 36 36">
  <g id="Layer_2-2" data-name="Layer 2">
    <g>
      <path d="M17,19.3l-.4-6.3c0-1.2-.1-2.1-.1-2.7s.2-1.3.6-1.7c.4-.4.9-.6,1.5-.6s1.3.3,1.5.8.4,1.3.4,2.3,0,1.2,0,1.8l-.6,6.5c0,.8-.2,1.4-.4,1.8s-.5.6-1,.6-.8-.2-1-.6c-.2-.4-.3-1-.4-1.8ZM18.5,28c-.5,0-1-.2-1.4-.5-.4-.3-.6-.8-.6-1.5s.2-1,.6-1.4c.4-.4.9-.6,1.4-.6s1,.2,1.4.6c.4.4.6.8.6,1.4s-.2,1.1-.6,1.5-.9.5-1.4.5Z" fill="#231f20" stroke="#000" stroke-miterlimit="10"/>
      <rect width="36" height="36" fill="none"/>
    </g>
  </g>
</svg>